<svg xmlns="http://www.w3.org/2000/svg" viewBox="0 0 200 100" fill="none">
  <!-- Main stem -->
  <path d="M10 80 Q50 60 90 45 Q130 30 190 20" stroke="#8A9E88" stroke-width="2" fill="none" stroke-linecap="round"/>
  <!-- Branch 1 -->
  <path d="M50 63 Q45 50 40 42" stroke="#8A9E88" stroke-width="1.4" fill="none" stroke-linecap="round"/>
  <!-- Branch 2 -->
  <path d="M90 45 Q88 32 82 26" stroke="#8A9E88" stroke-width="1.4" fill="none" stroke-linecap="round"/>
  <!-- Branch 3 -->
  <path d="M130 30 Q132 18 138 14" stroke="#8A9E88" stroke-width="1.4" fill="none" stroke-linecap="round"/>
  <!-- Leaves on main stem -->
  <ellipse cx="35" cy="72" rx="9" ry="5" fill="#8A9E88" opacity="0.75" transform="rotate(-30 35 72)"/>
  <ellipse cx="60" cy="57" rx="10" ry="5" fill="#8A9E88" opacity="0.7" transform="rotate(-20 60 57)"/>
  <ellipse cx="100" cy="42" rx="10" ry="5" fill="#8A9E88" opacity="0.75" transform="rotate(-15 100 42)"/>
  <ellipse cx="140" cy="28" rx="9" ry="4.5" fill="#8A9E88" opacity="0.7" transform="rotate(-10 140 28)"/>
  <ellipse cx="170" cy="22" rx="9" ry="4" fill="#8A9E88" opacity="0.65" transform="rotate(-8 170 22)"/>
  <!-- Branch leaves -->
  <ellipse cx="40" cy="42" rx="7" ry="3.5" fill="#6a7e68" opacity="0.7" transform="rotate(-50 40 42)"/>
  <ellipse cx="82" cy="26" rx="7" ry="3.5" fill="#6a7e68" opacity="0.7" transform="rotate(-40 82 26)"/>
  <ellipse cx="138" cy="14" rx="7" ry="3" fill="#6a7e68" opacity="0.7" transform="rotate(-30 138 14)"/>
  <!-- Small berries -->
  <circle cx="190" cy="20" r="3" fill="#8B4A3A" opacity="0.6"/>
  <circle cx="185" cy="17" r="2.5" fill="#8B4A3A" opacity="0.5"/>
  <circle cx="193" cy="16" r="2" fill="#C4A265" opacity="0.6"/>
</svg>
