<svg xmlns="http://www.w3.org/2000/svg" viewBox="0 0 140 140" fill="none">
  <!-- Outer stamp border -->
  <rect x="6" y="6" width="128" height="128" rx="4" fill="none" stroke="#7A8FA6" stroke-width="2.5" stroke-dasharray="4 3"/>
  <rect x="12" y="12" width="116" height="116" rx="3" fill="none" stroke="#7A8FA6" stroke-width="1.2"/>
  <!-- Inner content area -->
  <rect x="18" y="18" width="104" height="104" rx="2" fill="#EEF2F7" opacity="0.6"/>
  <!-- Top arc text -->
  <path id="topArc" d="M 30 70 A 40 40 0 0 1 110 70" fill="none"/>
  <text font-family="serif" font-size="8.5" fill="#7A8FA6" letter-spacing="2.5" font-weight="600">
    <textPath href="#topArc">MOUNT ST. MARY'S UNIVERSITY</textPath>
  </text>
  <!-- Center open book icon -->
  <path d="M44 62 Q70 55 96 62 L96 86 Q70 79 44 86 Z" fill="#7A8FA6" opacity="0.15" stroke="#7A8FA6" stroke-width="1.2"/>
  <path d="M70 62 L70 86" stroke="#7A8FA6" stroke-width="1"/>
  <path d="M50 67 L66 65" stroke="#7A8FA6" stroke-width="0.8" opacity="0.7"/>
  <path d="M50 71 L66 69" stroke="#7A8FA6" stroke-width="0.8" opacity="0.7"/>
  <path d="M50 75 L66 73" stroke="#7A8FA6" stroke-width="0.8" opacity="0.7"/>
  <path d="M74 65 L90 67" stroke="#7A8FA6" stroke-width="0.8" opacity="0.7"/>
  <path d="M74 69 L90 71" stroke="#7A8FA6" stroke-width="0.8" opacity="0.7"/>
  <path d="M74 73 L90 75" stroke="#7A8FA6" stroke-width="0.8" opacity="0.7"/>
  <!-- Year band -->
  <rect x="28" y="90" width="84" height="16" rx="2" fill="#7A8FA6" opacity="0.15"/>
  <text x="70" y="101.5" text-anchor="middle" font-family="serif" font-size="9" fill="#7A8FA6" letter-spacing="3" font-weight="700">2024 – 2025</text>
  <!-- Bottom text -->
  <text x="70" y="116" text-anchor="middle" font-family="serif" font-size="7" fill="#7A8FA6" letter-spacing="2">ID &amp; TECHNOLOGY</text>
  <!-- Corner ornaments -->
  <circle cx="22" cy="22" r="2.5" fill="#7A8FA6" opacity="0.4"/>
  <circle cx="118" cy="22" r="2.5" fill="#7A8FA6" opacity="0.4"/>
  <circle cx="22" cy="118" r="2.5" fill="#7A8FA6" opacity="0.4"/>
  <circle cx="118" cy="118" r="2.5" fill="#7A8FA6" opacity="0.4"/>
</svg>
